<svg width="198" height="42" viewBox="0 0 198 42" fill="none" xmlns="http://www.w3.org/2000/svg">
<g id="Logo">
<g id="Group">
<path id="Vector" d="M37.0078 0.100433V25.6361H31.2214V15.7614H13.9754L8.13869 9.97505H31.2088L31.2214 5.88683H5.7864V25.6361H0V4.70439L4.60396 0.100433H37.0078Z" fill="#3F4B9A"/>
</g>
<g id="Group_2">
<path id="Vector_2" fill-rule="evenodd" clip-rule="evenodd" d="M77.1227 4.70439V25.6361H71.3363V5.88683H45.9013V25.6361H40.1149V0.100433H72.5187L77.1227 4.70439Z" fill="#3F4B9A"/>
</g>
<g id="Group_3">
<path id="Vector_3" d="M157.528 38.2907V36.9322H156.157V36.2277H157.528V34.8566H158.233V36.2277H159.591V36.9322H158.233V38.2907H157.528Z" fill="#3F4B9A"/>
<path id="Vector_4" d="M160.573 39.1838L162.673 34.9446V34.7685H160.233V33.9635H163.667V34.9698L161.604 39.1964H160.573V39.1838Z" fill="#3F4B9A"/>
<path id="Vector_5" d="M166.132 39.1838V38.1649H163.617V37.3598L166.132 33.9509H167.026V37.3598H167.629V38.1649H167.026V39.1838H166.132ZM164.724 37.3598H166.132V35.4478L164.724 37.3598Z" fill="#3F4B9A"/>
<path id="Vector_6" d="M168.422 39.1838V38.3033H169.277V39.1838H168.422Z" fill="#3F4B9A"/>
<path id="Vector_7" d="M171.051 39.1838L170.258 38.3913V34.7434L171.051 33.9509H173.466L174.171 34.6553L173.592 35.2465L173.064 34.7308H171.453L171.139 35.0452L171.152 36.2025L171.491 35.8881H173.403L174.196 36.6805V38.3913L173.403 39.1838H171.051ZM171.479 38.4039H173.001L173.315 38.0894V36.9824L173.001 36.668L171.516 36.6805L171.164 37.0328L171.177 38.102L171.479 38.4039Z" fill="#3F4B9A"/>
<path id="Vector_8" d="M180.246 39.1838V33.9635H181.102V36.6051H181.278L182.397 35.473H183.517L181.982 37.0202L183.605 39.1712H182.573L181.416 37.5988L181.127 37.8882V39.1838H180.246Z" fill="#3F4B9A"/>
<path id="Vector_9" d="M184.158 39.1838V35.4729H185.014V36.127L185.68 35.4729H187.001L187.655 36.1396L188.322 35.4729H189.643L190.435 36.2654V39.1838H189.58V36.4667L189.278 36.1396H188.523L187.781 36.8818V39.1838H186.926V36.4667L186.624 36.1396H185.869L185.001 37.0076V39.1838H184.158Z" fill="#3F4B9A"/>
<path id="Vector_10" d="M191.09 39.9637L193.278 33.9635H194.184L191.995 39.9637H191.09Z" fill="#3F4B9A"/>
<path id="Vector_11" d="M194.901 39.1838V38.4793H196.838L197.128 38.19V37.951L196.8 37.6114H195.429L194.7 36.907V36.1899L195.404 35.4729H197.593V36.1774H195.832L195.555 36.4541V36.6176L195.87 36.9321H197.253L197.983 37.6365V38.4668L197.278 39.1712H194.901V39.1838Z" fill="#3F4B9A"/>
</g>
<g id="Group_4">
<path id="Vector_12" d="M66.053 33.9635C66.053 33.9635 66.053 37.6366 62.3799 37.6366C66.053 37.6366 66.053 41.3097 66.053 41.3097C66.053 41.3097 66.053 37.6366 69.7261 37.6366C66.053 37.6366 66.053 33.9635 66.053 33.9635Z" fill="#3F4B9A"/>
</g>
<g id="Group_5">
<path id="Vector_13" d="M0.503174 39.1835V34.5795H3.18253L3.87438 35.2713V36.7934L3.24542 37.4224L4.02533 39.1835H3.13221L2.40262 37.4853H1.2705V39.1835H0.503174ZM1.28308 36.806H2.81773L3.09447 36.5293V35.5481L2.81773 35.2713H1.28308V36.806Z" fill="#3F4B9A"/>
<path id="Vector_14" d="M4.32721 39.1838L5.82413 34.5798H6.99398L8.4909 39.1838H7.66068L7.32104 38.0643H5.49707L5.15743 39.1838H4.32721ZM5.71091 37.385H7.1072L6.47824 35.3346H6.33987L5.71091 37.385Z" fill="#3F4B9A"/>
<path id="Vector_15" d="M9.05692 39.1838V34.5798H11.7111L12.6797 35.5484V38.2152L11.7111 39.1838H9.05692ZM9.83682 38.5045H11.3463L11.8998 37.951V35.8252L11.3463 35.2717H9.83682V38.5045Z" fill="#3F4B9A"/>
<path id="Vector_16" d="M13.4345 39.1838V38.4668H13.8999V35.2842H13.4345V34.5672H15.1578V35.2842H14.6924V38.4668H15.1578V39.1838H13.4345Z" fill="#3F4B9A"/>
<path id="Vector_17" d="M15.5855 39.1838L17.0824 34.5798H18.2523L19.7492 39.1838H18.919L18.5793 38.0643H16.7554L16.4157 39.1838H15.5855ZM16.9692 37.385H18.3655L17.7365 35.3346H17.5856L16.9692 37.385Z" fill="#3F4B9A"/>
<path id="Vector_18" d="M20.3153 39.1838V34.5798H21.0952V38.4668H23.3217V39.1838H20.3153Z" fill="#3F4B9A"/>
<path id="Vector_19" d="M26.4287 39.1838L24.9318 34.5798H25.762L26.9319 38.4416H27.0829L28.2653 34.5798H29.0955L27.5986 39.1838H26.4287Z" fill="#3F4B9A"/>
<path id="Vector_20" d="M29.6615 39.1838V34.5798H32.8063V35.2968H30.4414V36.4164H32.605V37.1334H30.4414V38.4794H32.8063V39.1964H29.6615V39.1838Z" fill="#3F4B9A"/>
<path id="Vector_21" d="M33.6114 39.1838V34.5798H34.3913V38.4668H36.6178V39.1838H33.6114Z" fill="#3F4B9A"/>
<path id="Vector_22" d="M37.7625 39.1838L37.0706 38.4919V35.2717L37.7625 34.5798H40.0142L40.706 35.2717V38.4919L40.0142 39.1838H37.7625ZM38.1273 38.5045H39.6494L39.9261 38.2278V35.5484L39.6619 35.2717H38.1147L37.838 35.5484V38.2278L38.1273 38.5045Z" fill="#3F4B9A"/>
<path id="Vector_23" d="M42.1526 39.1838L41.4608 38.4919V35.2717L42.1526 34.5798H44.3288L44.9578 35.2088L44.4672 35.712L44.0143 35.2717H42.5174L42.2407 35.5484V38.2278L42.5048 38.5045H44.0521L44.5049 38.0517L44.9955 38.5548L44.3665 39.1838H42.1526Z" fill="#3F4B9A"/>
<path id="Vector_24" d="M45.5112 39.1838V38.4668H45.9767V35.2842H45.5112V34.5672H47.2346V35.2842H46.7691V38.4668H47.2346V39.1838H45.5112Z" fill="#3F4B9A"/>
<path id="Vector_25" d="M48.9705 39.1838V35.2968H47.6874V34.5798H51.0335V35.2968H49.7504V39.1838H48.9705Z" fill="#3F4B9A"/>
<path id="Vector_26" d="M52.8701 39.1838V37.4856L51.2599 34.5798H52.1531L53.1846 36.5925H53.3355L54.367 34.5798H55.2601L53.65 37.4856V39.1838H52.8701Z" fill="#3F4B9A"/>
</g>
<g id="Group_6">
<path id="Vector_27" d="M152.849 37.3724H57.7382V37.8881H152.849V37.3724Z" fill="#3F4B9A"/>
</g>
<g id="Group_7">
<path id="Vector_28" d="M157.264 0.263947V25.7996H151.478V15.925H134.232L128.383 10.1386H151.453L151.478 6.05034H126.043V25.7996H120.256V4.86791L124.86 0.263947H157.264Z" fill="#3F4B9A"/>
</g>
<g id="Group_8">
<path id="Vector_29" d="M197.706 0.263947V25.7996H191.932V15.925H174.686L168.837 10.1386H191.907L191.932 6.05034H166.497V25.7996H160.698V4.86791L165.315 0.263947H197.706Z" fill="#3F4B9A"/>
</g>
<g id="Group_9">
<path id="Vector_30" d="M117.401 9.97504L114.294 13.0695L117.401 16.1765V25.9631H111.64V15.9501L94.2302 16.0759L85.7519 25.938L84.2927 25.9631H79.9655L79.9907 0.175903H85.7519V17.8244L92.3937 10.1889H111.64V0.175903H117.401V9.97504Z" fill="#3F4B9A"/>
</g>
</g>
</svg>
